<?xml version="1.0" encoding="UTF-8"?>
<svg id="Layer_2" data-name="Layer 2" xmlns="http://www.w3.org/2000/svg" viewBox="0 0 43.29 46.82">
  <defs>
    <style>
      .cls-1 {
        fill: #231f20;
      }
    </style>
  </defs>
  <g id="Layer_1-2" data-name="Layer 1">
    <path id="Shape" class="cls-1" d="M18.63,46.82l-13.38-7.87-5.25-5.95v-16.06l2.73-7.36L16.7,1.51l7.77-1.51,13.68,8.07,5.14,6.15v15.95l-2.92,7.57-13.97,7.77-7.77,1.31h0ZM9.9,18.33l-3.53,2.03v17.67l12.52,7.36,5.3-.9-1.26-.75-13.03-7.72v-17.69ZM11.27,30.97v4.26l12.28,7.28,2.61,1.55,13.09-7.28,2.01-5.2-14.05,7.83-.34.19h-.68s-14.93-8.62-14.93-8.62ZM38.39,10.5v16.98l-5.59,2.89-9.9,5.71,3.65,2.11,15.36-8.56v-14.92l-3.53-4.22ZM16.64,8.64h0L1.38,17.47v15.01l3.62,4.11v-17.03l5.25-3.02,9.93-5.74-3.55-2.16ZM21.54,11.61h0l-10.26,5.92v11.84l10.25,5.92,10.25-5.92v-11.84l-10.25-5.92h0ZM24.21,1.45l-5.36,1.05,14.31,8.39v17.75l3.85-1.99V9L24.21,1.45ZM16.65,7.04h0l4.7,2.87.53.32,9.91,5.72.02-4.26L16.93,2.96,3.84,10.52l-1.85,5,14.66-8.48h0Z"/>
  </g>
</svg>