<?xml version="1.0" encoding="UTF-8"?>
<svg id="Layer_2" data-name="Layer 2" xmlns="http://www.w3.org/2000/svg" xmlns:xlink="http://www.w3.org/1999/xlink" viewBox="0 0 331.37 358.73">
  <defs>
    <style>
      .cls-1 {
        fill: url(#linear-gradient-2);
      }

      .cls-2 {
        fill: url(#linear-gradient-4);
      }

      .cls-3 {
        fill: url(#linear-gradient-3);
      }

      .cls-4 {
        fill: url(#linear-gradient-5);
      }

      .cls-5 {
        fill: url(#linear-gradient-6);
      }

      .cls-6 {
        fill: url(#linear-gradient);
      }
    </style>
    <linearGradient id="linear-gradient" x1="6" y1="804.1" x2="256.97" y2="804.1" gradientTransform="translate(-6 -733.52)" gradientUnits="userSpaceOnUse">
      <stop offset="0" stop-color="#188ebf"/>
      <stop offset=".25" stop-color="#1d7aaa"/>
      <stop offset=".78" stop-color="#1c5184"/>
      <stop offset="1" stop-color="#1d3f75"/>
    </linearGradient>
    <linearGradient id="linear-gradient-2" x1="349.35" y1="825.99" x2="222.8" y2="1042.83" gradientTransform="translate(-6 -733.52)" gradientUnits="userSpaceOnUse">
      <stop offset="0" stop-color="#f68b1f"/>
      <stop offset="1" stop-color="#ffcf01"/>
    </linearGradient>
    <linearGradient id="linear-gradient-3" x1="157.08" y1="1111.78" x2="34.08" y2="891.38" gradientTransform="translate(-6 -733.52)" gradientUnits="userSpaceOnUse">
      <stop offset="0" stop-color="#6cbe45"/>
      <stop offset="1" stop-color="#0d9046"/>
    </linearGradient>
    <linearGradient id="linear-gradient-4" x1="186.06" y1="716.01" x2="308.35" y2="934.27" xlink:href="#linear-gradient-2"/>
    <linearGradient id="linear-gradient-5" x1="-5.88" y1="1001.65" x2="120.79" y2="783.18" gradientTransform="translate(-6 -733.52)" gradientUnits="userSpaceOnUse">
      <stop offset="0" stop-color="#6cbe45"/>
      <stop offset=".26" stop-color="#67b945"/>
      <stop offset=".51" stop-color="#59ae45"/>
      <stop offset=".77" stop-color="#40a046"/>
      <stop offset="1" stop-color="#0d9046"/>
    </linearGradient>
    <linearGradient id="linear-gradient-6" x1="339.83" y1="1023.86" x2="83.9" y2="1022.44" xlink:href="#linear-gradient"/>
  </defs>
  <g id="Layer_1-2" data-name="Layer 1">
    <g>
      <polygon class="cls-6" points="20.52 73.73 0 129.2 126.16 56.25 164.8 79.81 251.29 129.75 251.56 83.61 128.45 11.41 20.52 73.73"/>
      <polygon class="cls-1" points="292.61 208.25 251.29 229.65 164.8 279.59 204.45 302.49 331.37 231.81 331.37 108.68 292.61 62.33 292.61 208.25"/>
      <polygon class="cls-3" points="39.52 152.01 39.52 297.93 142.89 358.73 201.4 348.86 78.28 275.9 78.28 229.65 78.28 129.75 39.52 152.01"/>
      <polygon class="cls-2" points="128.45 11.41 251.56 83.61 251.29 129.75 251.29 229.65 292.61 208.25 292.61 62.33 186.96 0 128.45 11.41"/>
      <polygon class="cls-4" points="0 129.2 0 253.09 39.52 297.93 39.52 152.01 78.28 129.75 164.8 79.81 126.17 56.25 0 129.2"/>
      <polygon class="cls-5" points="78.28 275.9 201.41 348.86 309.33 288.8 331.36 231.8 204.45 302.49 164.8 279.59 78.28 229.66 78.28 275.9"/>
    </g>
  </g>
</svg>